<?xml version="1.0" encoding="UTF-8"?>
<svg id="Layer_1" xmlns="http://www.w3.org/2000/svg" version="1.1" viewBox="0 0 400 400">
  <!-- Generator: Adobe Illustrator 30.2.1, SVG Export Plug-In . SVG Version: 2.1.1 Build 1)  -->
  <defs>
    <style>
      .st0 {
        fill: #9ea2a2;
      }

      .st1 {
        fill: #0c2340;
      }

      .st2 {
        fill: #ffd520;
      }
    </style>
  </defs>
  <path class="st0" d="M357.4,74.9c-25.6-30.6-62.4-47.6-103.8-47.7H88.5L11.8,372.6h141c0,0,20.2-83.5,20.2-83.5,18.9,0,68.8,0,68.7,0,47.3.3,86-15.5,112.1-45.9,47.4-51.2,39.1-125.8,3.5-168.4"/>
  <path class="st1" d="M165.8,280l-20.2,83.5H23.2L95.8,36.3h157.8c39.3.2,73,15.9,96.7,44.4,35,41.9,38.4,111.4-3.4,156.7-25.7,29.8-63.4,43-105.1,42.7h-76Z"/>
  <path class="st2" d="M309.8,143.3c-.2-.9-.2-1.8-.7-2.6-.6-1-1.7-1-2.8-1-17.6,0-24.8-7.7-43.1-19.5-18.4-11.8-45.4-18.5-68.7-18.6h-113.1l-1.8,8.3h70.6c3.4,0,6.7,1.1,9.1,3.5,2.9,2.9,4.2,7.2,2.3,12.3-2.3,6.2-4,13.4-4.8,20.1-.6,5.2,5.9,8,9.3,8h141c2.7,0,3.4,0,3.4-1.3s0-5.9-.6-9.1"/>
  <path class="st2" d="M165,199.5c-2.4-5.2-4.7-11.3-6.1-17-1.7-7.3-8-13.1-18.5-13.1h-74.2l1.8-8.3,240.5.2c2.4,0,1.9,1,1.8,3.6-.2,2.7-.8,7.5-1.2,10.4s-2.8,2.2-5.1,2.3c-5.4,0-15.5,1.4-21.3,5.8-10,7.4-31.3,20.5-43.2,24.2-12.8,4.1-60.7,18.6-74.7-8.2"/>
  <path class="st2" d="M301.2,184.7c-10.6.8-21.7,10.2-36.3,19.5-13.8,8.7-40.8,16.9-67.4,17.9H54.6l-1.8,8.3h129.4c3.7,0,7.3,1.1,10.2,3.4h0c10.6,8.7,24.4,14.9,39,19.1,6.6,1.9,17.8-.5,27.9-6.2,25.2-14.1,41.3-40.9,46.6-58.1,1.4-4.5-1.3-4.1-4.8-3.9"/>
  <path class="st2" d="M237.1,62.7c1.8-.3,8.1-.7,11.6.7,23.8,9.3,46.4,33.9,55.9,60.1,1.8,5,2.3,8.3,0,8.5-10.9,1.2-16-4.1-28.9-12.8-12.9-8.7-24.7-14.5-41-19.7-16-5.1-45.3-5.8-49.1-5.9s-3.3-1.7-1.6-3.3c14-13.8,32.8-23.9,53.1-27.6"/>
  <path class="st2" d="M351.6,152.3c0,1-1,1.5-2.3,1.5h-27.5c-3.5,0-3.6-1-3.7-3-.2-2-.7-6-.9-8.4-.2-2.3-.9-4.9,2.1-6.3,7.7-3.2,14.9-10.6,18.2-17,1.1-2.1,2.7-5.7,4.7-2.7,6.5,10.3,8.5,23.1,9.3,35.8"/>
  <path class="st2" d="M341.7,201.3c-.5.9-2.3,1.6-2.8,0-4-10.6-13.5-18-20.1-21.6-2-1.1-2.2-2.3-1.9-4.3.2-2,1.1-8.1,1.2-10.8,0-2,.9-3.6,2.5-3.6h28.7c1.1,0,1.9.6,2.2,1.7.3,1.3,0,2.6,0,3.8-.3,4.1-.8,8-1.7,12-1.7,7.7-4.5,15.4-8,22.5h0Z"/>
  <path class="st2" d="M267.2,254.6c-2,.3-6.4-.4.5-4.4,20.9-12,39.4-40.2,44.3-56.3,1.9-6.2,2.1-6.5,4.5-5.8,3.2.9,8.2,5.2,12,10.5,3.8,5.2,5.5,15.5,3.3,18.4-14.9,19.9-38.8,33.9-64.7,37.7h0Z"/>
  <path class="st2" d="M320.2,127.2c-4.8,2.6-5.8,2.1-6.8-1.5-9.1-31.5-35.7-54.8-46.6-61.7-2.1-1.3-1.6-2.2,0-2,26.1,3.4,51.7,17.6,64.6,36.9,7.3,11.1-6.4,25.7-11.1,28.2"/>
</svg>